<svg width="42" height="42" viewBox="0 0 42 42" fill="none" xmlns="http://www.w3.org/2000/svg">
<path d="M9.73158 21.8125H8.52433L9.37806 22.6661L18.9511 32.2375C18.9511 32.2375 18.9511 32.2375 18.9511 32.2375C19.0266 32.313 19.0865 32.4026 19.1274 32.5013C19.1682 32.5999 19.1893 32.7057 19.1893 32.8125C19.1893 32.9193 19.1682 33.025 19.1274 33.1237C19.0865 33.2224 19.0266 33.312 18.9511 33.3875C18.8756 33.463 18.7859 33.5229 18.6872 33.5638C18.5886 33.6047 18.4828 33.6257 18.376 33.6257C18.2692 33.6257 18.1635 33.6047 18.0648 33.5638C17.9662 33.5229 17.8765 33.463 17.801 33.3875L5.98849 21.575L5.9883 21.5748C5.91275 21.4994 5.85282 21.4098 5.81193 21.3111C5.77105 21.2125 5.75 21.1068 5.75 21C5.75 20.8932 5.77105 20.7875 5.81193 20.6889C5.85282 20.5902 5.91275 20.5006 5.9883 20.4252L5.98849 20.425L17.801 8.61246C17.9535 8.45995 18.1604 8.37427 18.376 8.37427C18.5917 8.37427 18.7986 8.45995 18.9511 8.61246C19.1036 8.76497 19.1893 8.97181 19.1893 9.1875C19.1893 9.40317 19.1036 9.61 18.9511 9.76251C18.9511 9.76252 18.9511 9.76253 18.9511 9.76254L9.37806 19.3339L8.52433 20.1875H9.73158H35.4385C35.654 20.1875 35.8607 20.2731 36.0131 20.4255C36.1654 20.5778 36.251 20.7845 36.251 21C36.251 21.2155 36.1654 21.4221 36.0131 21.5745C35.8607 21.7269 35.654 21.8125 35.4385 21.8125H9.73158Z" fill="black" stroke="black"/>
</svg>
