<svg width="30" height="30" viewBox="0 0 30 30" fill="none" xmlns="http://www.w3.org/2000/svg">
<path d="M23.4375 5.625H15.9375V1.875C15.9375 1.62636 15.8387 1.3879 15.6629 1.21209C15.4871 1.03627 15.2486 0.9375 15 0.9375C14.7514 0.9375 14.5129 1.03627 14.3371 1.21209C14.1613 1.3879 14.0625 1.62636 14.0625 1.875V5.625H6.5625C5.56794 5.625 4.61411 6.02009 3.91085 6.72335C3.20759 7.42661 2.8125 8.38044 2.8125 9.375V22.5C2.8125 23.4946 3.20759 24.4484 3.91085 25.1516C4.61411 25.8549 5.56794 26.25 6.5625 26.25H23.4375C24.4321 26.25 25.3859 25.8549 26.0891 25.1516C26.7924 24.4484 27.1875 23.4946 27.1875 22.5V9.375C27.1875 8.38044 26.7924 7.42661 26.0891 6.72335C25.3859 6.02009 24.4321 5.625 23.4375 5.625ZM25.3125 22.5C25.3125 22.9973 25.115 23.4742 24.7633 23.8258C24.4117 24.1775 23.9348 24.375 23.4375 24.375H6.5625C6.06522 24.375 5.58831 24.1775 5.23667 23.8258C4.88504 23.4742 4.6875 22.9973 4.6875 22.5V9.375C4.6875 8.87772 4.88504 8.40081 5.23667 8.04918C5.58831 7.69754 6.06522 7.5 6.5625 7.5H23.4375C23.9348 7.5 24.4117 7.69754 24.7633 8.04918C25.115 8.40081 25.3125 8.87772 25.3125 9.375V22.5ZM19.2188 15.9375H10.7812C9.91101 15.9375 9.07641 16.2832 8.46106 16.8986C7.8457 17.5139 7.5 18.3485 7.5 19.2188C7.5 20.089 7.8457 20.9236 8.46106 21.5389C9.07641 22.1543 9.91101 22.5 10.7812 22.5H19.2188C20.089 22.5 20.9236 22.1543 21.5389 21.5389C22.1543 20.9236 22.5 20.089 22.5 19.2188C22.5 18.3485 22.1543 17.5139 21.5389 16.8986C20.9236 16.2832 20.089 15.9375 19.2188 15.9375ZM16.4062 17.8125V20.625H13.5938V17.8125H16.4062ZM9.375 19.2188C9.375 18.8458 9.52316 18.4881 9.78688 18.2244C10.0506 17.9607 10.4083 17.8125 10.7812 17.8125H11.7188V20.625H10.7812C10.4083 20.625 10.0506 20.4768 9.78688 20.2131C9.52316 19.9494 9.375 19.5917 9.375 19.2188ZM19.2188 20.625H18.2812V17.8125H19.2188C19.5917 17.8125 19.9494 17.9607 20.2131 18.2244C20.4768 18.4881 20.625 18.8458 20.625 19.2188C20.625 19.5917 20.4768 19.9494 20.2131 20.2131C19.9494 20.4768 19.5917 20.625 19.2188 20.625ZM8.4375 12.6562C8.4375 12.3781 8.51997 12.1062 8.6745 11.875C8.82902 11.6437 9.04864 11.4635 9.3056 11.357C9.56256 11.2506 9.84531 11.2228 10.1181 11.277C10.3909 11.3313 10.6415 11.4652 10.8381 11.6619C11.0348 11.8585 11.1687 12.1091 11.223 12.3819C11.2772 12.6547 11.2494 12.9374 11.143 13.1944C11.0365 13.4514 10.8563 13.671 10.625 13.8255C10.3938 13.98 10.1219 14.0625 9.84375 14.0625C9.47079 14.0625 9.1131 13.9143 8.84938 13.6506C8.58566 13.3869 8.4375 13.0292 8.4375 12.6562ZM18.75 12.6562C18.75 12.3781 18.8325 12.1062 18.987 11.875C19.1415 11.6437 19.3611 11.4635 19.6181 11.357C19.8751 11.2506 20.1578 11.2228 20.4306 11.277C20.7034 11.3313 20.954 11.4652 21.1506 11.6619C21.3473 11.8585 21.4812 12.1091 21.5355 12.3819C21.5897 12.6547 21.5619 12.9374 21.4555 13.1944C21.349 13.4514 21.1688 13.671 20.9375 13.8255C20.7063 13.98 20.4344 14.0625 20.1562 14.0625C19.7833 14.0625 19.4256 13.9143 19.1619 13.6506C18.8982 13.3869 18.75 13.0292 18.75 12.6562Z" fill="#302D2D"/>
</svg>
