<svg width="155" height="154" viewBox="0 0 155 154" fill="none" xmlns="http://www.w3.org/2000/svg">
<path d="M113.033 87.7799C112.086 84.7125 111.013 81.6704 109.814 78.6914C109.801 78.6661 109.801 78.6535 109.789 78.6283C108.009 74.1093 105.939 69.7165 103.604 65.412C103.591 65.3994 103.591 65.3742 103.578 65.3615C103.023 64.3138 102.43 63.2787 101.836 62.2437C97.128 54.1271 91.5865 46.6417 85.2119 39.8127C78.8499 32.9837 72.0461 27.48 64.8006 23.3018C57.5676 19.111 50.7512 16.7505 44.3892 16.233C44.1242 16.2077 43.8591 16.1951 43.6066 16.1825C43.3668 16.1573 43.1396 16.1446 42.9124 16.1446C38.1661 15.93 33.8996 16.6622 30.1127 18.3032L30.0496 18.3284L27.7648 19.4771C23.0438 22.1658 19.32 26.3692 16.5808 32.1C13.8164 37.8182 12.4531 44.824 12.4531 53.1425C12.4531 61.461 13.8164 70.0447 16.5808 78.9438C19.32 87.843 23.0438 96.3509 27.7648 104.48C32.4732 112.609 38.0147 120.082 44.3892 126.924C50.7512 133.753 57.5676 139.256 64.8006 143.435C72.0461 147.613 78.8499 149.973 85.2119 150.491C91.5865 151.008 97.128 149.935 101.836 147.247C105.409 145.214 108.426 142.299 110.874 138.499C111.001 138.31 111.127 138.12 111.228 137.918C111.884 136.883 112.465 135.798 113.033 134.649C115.772 128.918 117.148 121.9 117.148 113.594C117.148 105.288 115.772 96.6791 113.033 87.7799ZM81.9425 92.8165L80.9075 93.4098L61.4302 104.505L60.3952 105.099L57.4666 106.765L35.225 68.3911L40.3499 65.4625L41.385 64.8692L42.5463 64.2129L57.4666 89.9511L73.5862 80.7615L74.6212 80.1683L80.9075 76.5833L81.9425 75.9901L87.0548 73.0868L87.787 74.3491L87.8248 74.4122L94.3762 85.7224L81.9425 92.8165Z" stroke="#34C759" stroke-width="4" stroke-linecap="round" stroke-linejoin="round"/>
<path d="M87.8269 74.4122L82.7146 77.3281L75.1535 81.1024L57.4688 89.9511L73.5882 80.7615L74.6233 80.1683L80.9096 76.5833L81.9446 75.9901L87.0569 73.0868L87.7891 74.3491L87.8269 74.4122Z" stroke="#34C759" stroke-width="4" stroke-linecap="round" stroke-linejoin="round"/>
<path d="M94.3777 85.7223L81.9441 92.8164L80.909 93.4097L61.4318 104.505L60.3967 105.099L57.4682 106.765L35.2266 68.391L40.3515 65.4624L41.3866 64.8692L42.5479 64.2128L57.4682 89.951L75.1529 81.1023L82.7141 77.328L87.8264 74.4121L94.3777 85.7223Z" stroke="#34C759" stroke-width="4" stroke-linecap="round" stroke-linejoin="round"/>
<path d="M142.394 100.971C142.394 109.277 141.019 116.295 138.279 122.026C137.61 123.389 136.903 124.677 136.121 125.876C133.672 129.676 130.655 132.592 127.083 134.624C126.414 135.003 125.732 135.356 125.025 135.672L124.811 135.773L101.837 147.247C105.409 145.214 108.426 142.299 110.875 138.499C111.001 138.31 111.127 138.12 111.228 137.918C111.885 136.883 112.465 135.798 113.033 134.649C115.773 128.918 117.149 121.9 117.149 113.594C117.149 105.288 115.773 96.6791 113.033 87.7799C112.087 84.7125 111.014 81.6704 109.815 78.6914C109.802 78.6661 109.802 78.6535 109.789 78.6283C108.01 74.1092 105.939 69.7165 103.604 65.412C103.591 65.3994 103.591 65.3742 103.579 65.3615C103.023 64.3138 102.43 63.2787 101.837 62.2437C97.1285 54.1271 91.5871 46.6417 85.2125 39.8127C78.8505 32.9836 72.0467 27.48 64.8011 23.3018C57.5682 19.111 50.7518 16.7505 44.3898 16.233C44.1248 16.2077 43.8597 16.1951 43.6072 16.1825C43.3674 16.1572 43.1402 16.1446 42.913 16.1446C38.1667 15.93 33.9002 16.6622 30.1133 18.3031L53.0113 6.85416L55.2961 5.70548L55.3592 5.68023C59.1461 4.03925 63.4126 3.30711 68.1589 3.5217C68.6385 3.5217 69.1308 3.5722 69.6357 3.61006C75.9977 4.12761 82.8141 6.4881 90.047 10.6789C97.2926 14.8571 104.096 20.3607 110.458 27.1897C116.833 34.0187 122.374 41.5041 127.083 49.6207C127.676 50.6558 128.269 51.6909 128.825 52.7386C131.173 57.0556 133.243 61.4737 135.035 66.0053C136.247 69.0096 137.32 72.0643 138.279 75.157C141.019 84.0561 142.394 92.665 142.394 100.971Z" stroke="#34C759" stroke-width="4" stroke-linecap="round" stroke-linejoin="round"/>
</svg>
