<svg width="30" height="30" viewBox="0 0 30 30" fill="none" xmlns="http://www.w3.org/2000/svg">
<path d="M27.1948 21.8859C27.8426 20.5423 28.1605 19.0636 28.122 17.5725C28.0835 16.0814 27.6898 14.621 26.9735 13.3126C26.2573 12.0043 25.2392 10.8857 24.0038 10.0498C22.7685 9.21391 21.3515 8.68486 19.8706 8.50658C19.3778 7.36092 18.6615 6.32508 17.7634 5.45973C16.8653 4.59438 15.8036 3.91692 14.6405 3.467C13.4773 3.01709 12.2361 2.80378 10.9895 2.83955C9.74284 2.87533 8.51588 3.15947 7.38044 3.67535C6.245 4.19122 5.2239 4.92846 4.37694 5.84388C3.52997 6.75931 2.87417 7.83452 2.44793 9.00656C2.02169 10.1786 1.83358 11.4239 1.89462 12.6695C1.95566 13.9152 2.26462 15.1361 2.80341 16.2609L1.95146 19.1566C1.8562 19.4798 1.84983 19.8228 1.93302 20.1494C2.01621 20.476 2.18588 20.7741 2.42417 21.0124C2.66247 21.2507 2.96059 21.4203 3.28717 21.5035C3.61375 21.5867 3.95671 21.5804 4.27997 21.4851L7.17568 20.6331C8.10548 21.0799 9.10234 21.3709 10.1265 21.4945C10.624 22.6603 11.3528 23.713 12.2688 24.5892C13.1847 25.4653 14.2689 26.1466 15.4556 26.5919C16.6423 27.0372 17.907 27.2372 19.1733 27.1798C20.4395 27.1224 21.6809 26.8089 22.8226 26.2581L25.7183 27.1101C26.0414 27.2052 26.3842 27.2116 26.7106 27.1284C27.0371 27.0453 27.3351 26.8757 27.5733 26.6376C27.8116 26.3995 27.9813 26.1015 28.0646 25.7752C28.1479 25.4488 28.1418 25.1059 28.0468 24.7828L27.1948 21.8859ZM7.26474 18.6913C7.17515 18.6916 7.08602 18.7042 6.9999 18.7288L3.74911 19.6874L4.70654 16.4343C4.77463 16.1993 4.74813 15.947 4.63271 15.7312C3.78463 14.1452 3.53475 12.3072 3.9286 10.5523C4.32246 8.79739 5.33383 7.24248 6.77835 6.17097C8.22286 5.09947 10.0043 4.58274 11.798 4.71498C13.5917 4.84722 15.2781 5.61962 16.5499 6.89138C17.8216 8.16314 18.594 9.84957 18.7263 11.6432C18.8585 13.4369 18.3418 15.2184 17.2703 16.6629C16.1988 18.1074 14.6439 19.1188 12.889 19.5126C11.1341 19.9065 9.29609 19.6566 7.71005 18.8085C7.57367 18.7331 7.42061 18.6928 7.26474 18.6913ZM25.287 22.0581L26.2491 25.3124L22.996 24.355C22.761 24.2869 22.5086 24.3134 22.2929 24.4288C20.5665 25.3507 18.5483 25.5618 16.6686 25.0171C14.7888 24.4725 13.1961 23.2152 12.23 21.5132C13.5136 21.3792 14.7557 20.9814 15.8784 20.3448C17.001 19.7081 17.98 18.8463 18.7538 17.8134C19.5277 16.7805 20.0798 15.5989 20.3754 14.3426C20.671 13.0863 20.7038 11.7824 20.4718 10.5128C21.5902 10.7765 22.6331 11.2936 23.52 12.0242C24.4068 12.7548 25.114 13.6795 25.5868 14.7268C26.0596 15.7741 26.2854 16.916 26.2468 18.0645C26.2083 19.2129 25.9063 20.3371 25.3643 21.3503C25.2477 21.5674 25.2211 21.8217 25.2905 22.0581H25.287Z" fill="black"/>
</svg>
