<svg width="31" height="30" viewBox="0 0 31 30" fill="none" xmlns="http://www.w3.org/2000/svg">
<path d="M25.5383 9.64922L18.9758 3.08672C18.8887 2.99969 18.7852 2.93067 18.6714 2.88362C18.5576 2.83657 18.4357 2.8124 18.3125 2.8125H7.0625C6.56522 2.8125 6.08831 3.01004 5.73667 3.36167C5.38504 3.71331 5.1875 4.19022 5.1875 4.6875V25.3125C5.1875 25.8098 5.38504 26.2867 5.73667 26.6383C6.08831 26.99 6.56522 27.1875 7.0625 27.1875H23.9375C24.4348 27.1875 24.9117 26.99 25.2633 26.6383C25.615 26.2867 25.8125 25.8098 25.8125 25.3125V10.3125C25.8126 10.1893 25.7884 10.0674 25.7414 9.95358C25.6943 9.83977 25.6253 9.73635 25.5383 9.64922ZM19.25 6.01289L22.6121 9.375H19.25V6.01289ZM23.9375 25.3125H7.0625V4.6875H17.375V10.3125C17.375 10.5611 17.4738 10.7996 17.6496 10.9754C17.8254 11.1512 18.0639 11.25 18.3125 11.25H23.9375V25.3125ZM18.9758 18.0867C19.0629 18.1738 19.1321 18.2772 19.1793 18.391C19.2265 18.5048 19.2507 18.6268 19.2507 18.75C19.2507 18.8732 19.2265 18.9952 19.1793 19.109C19.1321 19.2228 19.0629 19.3262 18.9758 19.4133L16.1633 22.2258C16.0762 22.3129 15.9728 22.3821 15.859 22.4293C15.7452 22.4765 15.6232 22.5007 15.5 22.5007C15.3768 22.5007 15.2548 22.4765 15.141 22.4293C15.0272 22.3821 14.9238 22.3129 14.8367 22.2258L12.0242 19.4133C11.8483 19.2374 11.7495 18.9988 11.7495 18.75C11.7495 18.5012 11.8483 18.2626 12.0242 18.0867C12.2001 17.9108 12.4387 17.812 12.6875 17.812C12.9363 17.812 13.1749 17.9108 13.3508 18.0867L14.5625 19.2996V14.0625C14.5625 13.8139 14.6613 13.5754 14.8371 13.3996C15.0129 13.2238 15.2514 13.125 15.5 13.125C15.7486 13.125 15.9871 13.2238 16.1629 13.3996C16.3387 13.5754 16.4375 13.8139 16.4375 14.0625V19.2996L17.6492 18.0867C17.7363 17.9996 17.8397 17.9304 17.9535 17.8832C18.0673 17.836 18.1893 17.8118 18.3125 17.8118C18.4357 17.8118 18.5577 17.836 18.6715 17.8832C18.7853 17.9304 18.8887 17.9996 18.9758 18.0867Z" fill="white"/>
</svg>
