<svg width="30" height="30" viewBox="0 0 30 30" fill="none" xmlns="http://www.w3.org/2000/svg">
<g clip-path="url(#clip0_2826_685)">
<path d="M25.7004 13.736L16.3254 4.361C15.9738 4.00963 15.4971 3.81226 15 3.81226C14.5029 3.81226 14.0262 4.00963 13.6746 4.361L4.29962 13.736C4.12467 13.9097 3.98598 14.1164 3.89163 14.3441C3.79727 14.5718 3.74913 14.8161 3.75001 15.0626V26.3126C3.75001 26.5612 3.84878 26.7997 4.0246 26.9755C4.20041 27.1513 4.43887 27.2501 4.68751 27.2501H12.1875C12.4362 27.2501 12.6746 27.1513 12.8504 26.9755C13.0262 26.7997 13.125 26.5612 13.125 26.3126V19.7501H16.875V26.3126C16.875 26.5612 16.9738 26.7997 17.1496 26.9755C17.3254 27.1513 17.5639 27.2501 17.8125 27.2501H25.3125C25.5612 27.2501 25.7996 27.1513 25.9754 26.9755C26.1512 26.7997 26.25 26.5612 26.25 26.3126V15.0626C26.2509 14.8161 26.2028 14.5718 26.1084 14.3441C26.014 14.1164 25.8754 13.9097 25.7004 13.736ZM24.375 25.3751H18.75V18.8126C18.75 18.5639 18.6512 18.3255 18.4754 18.1496C18.2996 17.9738 18.0612 17.8751 17.8125 17.8751H12.1875C11.9389 17.8751 11.7004 17.9738 11.5246 18.1496C11.3488 18.3255 11.25 18.5639 11.25 18.8126V25.3751H5.62501V15.0626L15 5.68756L24.375 15.0626V25.3751Z" fill="#302D2D"/>
</g>
<defs>
<clipPath id="clip0_2826_685">
<rect width="30" height="30" fill="white"/>
</clipPath>
</defs>
</svg>
