<svg width="91" height="91" viewBox="0 0 91 91" fill="none" xmlns="http://www.w3.org/2000/svg">
<path d="M64.3483 78.0683V88.8685L10.5625 57.8088V47.0085C10.5625 44.8213 11.0494 43.0971 12.0313 41.8279C12.5182 41.1973 13.0929 40.7184 13.7395 40.3911H13.7475C14.3941 40.0718 15.1205 39.9041 15.9347 39.8882C19.4151 39.9041 22.9433 40.447 26.5274 41.5166C30.1115 42.5942 33.7595 44.1987 37.4554 46.33C41.1513 48.4693 44.7993 51.0716 48.3834 54.1369C51.9675 57.2021 55.4958 60.7384 58.9761 64.7376C60.4848 66.5017 61.7141 68.4893 62.664 70.6925C62.7438 70.8521 62.8077 71.0198 62.8795 71.1874C63.8614 73.5901 64.3483 75.8811 64.3483 78.0683Z" stroke="#281266" stroke-width="3" stroke-linecap="round" stroke-linejoin="round"/>
<path d="M50.9048 34.8116C50.9048 35.554 50.8649 36.2564 50.785 36.911C50.4019 40.0161 49.1247 42.1874 46.9535 43.4247C44.3193 44.9254 41.1502 44.614 37.4543 42.4747C33.9979 40.4791 30.9965 37.4218 28.4741 33.3109C28.4262 33.247 28.3863 33.1832 28.3464 33.1193C28.2107 32.8958 28.0829 32.6803 27.9552 32.4568C25.321 27.9147 24.0039 23.5244 24.0039 19.2777C24.0039 15.0311 25.321 12.1654 27.9552 10.6647L28.5779 10.3533C31.0843 9.21983 34.0458 9.6429 37.4543 11.6146C38.3643 12.1334 39.2344 12.7321 40.0806 13.4026C42.6749 15.4541 44.9658 18.2001 46.9535 21.6246C49.1566 25.4242 50.4338 29.1121 50.793 32.7042C50.8729 33.4067 50.9048 34.1091 50.9048 34.8116Z" stroke="#281266" stroke-width="3" stroke-linecap="round" stroke-linejoin="round"/>
<path d="M66.87 26.8289C66.87 31.0676 65.5529 33.9413 62.9187 35.442L62.296 35.7533L55.0958 39.3534L46.9537 43.4244C49.125 42.1872 50.4022 40.0159 50.7853 36.9108C50.8651 36.2562 50.9051 35.5537 50.9051 34.8114C50.9051 34.1089 50.8731 33.4065 50.7933 32.704C50.4341 29.1119 49.1569 25.424 46.9537 21.6244C44.9661 18.1999 42.6751 15.4539 40.0808 13.4024C39.2347 12.7319 38.3646 12.1332 37.4546 11.6144C34.0461 9.64269 31.0846 9.21962 28.5781 10.3531L43.9204 2.68199C46.5546 1.1733 49.7237 1.4926 53.4195 3.6319C57.1154 5.76322 60.2844 9.09988 62.9187 13.6419C65.5529 18.1919 66.87 22.5823 66.87 26.8289Z" stroke="#281266" stroke-width="3" stroke-linecap="round" stroke-linejoin="round"/>
<path d="M80.3118 70.0859V80.8862L64.3469 88.8686V78.0684C64.3469 75.8812 63.86 73.5902 62.8781 71.1875C62.8063 71.0198 62.7424 70.8522 62.6626 70.6926C61.7127 68.4894 60.4834 66.5018 58.9747 64.7376C55.4944 60.7384 51.9661 57.2022 48.382 54.1369C44.7979 51.0717 41.1499 48.4694 37.454 46.3301C33.7581 44.1988 30.1101 42.5943 26.526 41.5167C22.9419 40.447 19.4137 39.9042 15.9333 39.8883C15.1191 39.9042 14.3927 40.0719 13.7461 40.3912L28.346 33.1191C28.3859 33.183 28.4258 33.2469 28.4737 33.3107C30.9962 37.4217 33.9976 40.479 37.454 42.4746C41.1499 44.6139 44.3189 44.9252 46.9531 43.4245L55.0952 39.3534C58.2244 41.2852 61.3056 43.5522 64.3469 46.1545C67.931 49.2198 71.4593 52.756 74.9396 56.7552C76.5601 58.655 77.8612 60.8103 78.843 63.205C79.8249 65.6077 80.3118 67.8987 80.3118 70.0859Z" stroke="#281266" stroke-width="3" stroke-linecap="round" stroke-linejoin="round"/>
</svg>
