<svg width="10" height="18" viewBox="0 0 10 18" fill="none" xmlns="http://www.w3.org/2000/svg">
<path d="M9.53122 15.9694C9.6009 16.039 9.65617 16.1218 9.69388 16.2128C9.7316 16.3039 9.75101 16.4014 9.75101 16.5C9.75101 16.5985 9.7316 16.6961 9.69388 16.7872C9.65617 16.8782 9.6009 16.9609 9.53122 17.0306C9.46153 17.1003 9.37881 17.1556 9.28776 17.1933C9.19672 17.231 9.09914 17.2504 9.00059 17.2504C8.90204 17.2504 8.80446 17.231 8.71342 17.1933C8.62237 17.1556 8.53965 17.1003 8.46996 17.0306L0.969965 9.53061C0.900232 9.46096 0.844914 9.37824 0.80717 9.2872C0.769427 9.19615 0.75 9.09855 0.75 8.99999C0.75 8.90143 0.769427 8.80383 0.80717 8.71278C0.844914 8.62174 0.900232 8.53902 0.969965 8.46936L8.46996 0.969365C8.6107 0.828634 8.80157 0.749573 9.00059 0.749573C9.19961 0.749573 9.39048 0.828634 9.53122 0.969365C9.67195 1.1101 9.75101 1.30097 9.75101 1.49999C9.75101 1.69901 9.67195 1.88988 9.53122 2.03061L2.5609 8.99999L9.53122 15.9694Z" fill="black"/>
</svg>
