<svg width="32" height="32" viewBox="0 0 32 32" fill="none" xmlns="http://www.w3.org/2000/svg">
<g clip-path="url(#clip0_2848_1003)">
<path d="M32.0001 30.1185L23.667 21.7854C28.3266 16.0867 27.4842 7.68962 21.7854 3.03006C16.0867 -1.6295 7.68962 -0.787066 3.03006 4.91175C-1.6295 10.6106 -0.78706 19.0076 4.91168 23.6671C9.8203 27.6806 16.8768 27.6806 21.7853 23.6671L30.1185 32.0001L32.0001 30.1185ZM13.3699 24.0157C7.4903 24.0157 2.724 19.2494 2.724 13.3699C2.724 7.49031 7.4903 2.724 13.3699 2.724C19.2494 2.724 24.0157 7.49031 24.0157 13.3699C24.0091 19.2467 19.2467 24.0091 13.3699 24.0157Z" fill="#3C3C3C"/>
</g>
<defs>
<clipPath id="clip0_2848_1003">
<rect width="32" height="32" fill="white"/>
</clipPath>
</defs>
</svg>
