<svg width="26" height="32" viewBox="0 0 26 32" fill="none" xmlns="http://www.w3.org/2000/svg">
<path d="M25.7728 24.7463C24.9572 23.3329 23.7445 19.3938 23.7445 14.2872C23.7445 11.4383 22.6128 8.70608 20.5983 6.69161C18.5839 4.67713 15.8517 3.54541 13.0028 3.54541C10.1539 3.54541 7.42164 4.67713 5.40716 6.69161C3.39269 8.70608 2.26097 11.4383 2.26097 14.2872C2.26097 19.3938 1.04686 23.3329 0.231333 24.7392C0.080902 24.9969 0.00111005 25.2897 1.14986e-05 25.5881C-0.00108705 25.8865 0.076547 26.1799 0.225077 26.4386C0.373607 26.6974 0.587776 26.9124 0.845967 27.062C1.10416 27.2115 1.39723 27.2903 1.69561 27.2904H7.94705C8.08813 28.5325 8.68149 29.6791 9.61395 30.5117C10.5464 31.3442 11.7527 31.8044 13.0028 31.8044C14.2528 31.8044 15.4591 31.3442 16.3916 30.5117C17.324 29.6791 17.9174 28.5325 18.0585 27.2904H24.3099C24.6071 27.2894 24.8988 27.2102 25.1558 27.0609C25.4128 26.9117 25.6261 26.6975 25.7743 26.4398C25.9224 26.1821 26.0003 25.8901 26 25.5928C25.9997 25.2956 25.9214 25.0037 25.7728 24.7463ZM13.0028 30.6826C12.0512 30.6825 11.1315 30.3395 10.4122 29.7165C9.69292 29.0935 9.22218 28.2322 9.08624 27.2904H16.9193C16.7833 28.2322 16.3126 29.0935 15.5933 29.7165C14.874 30.3395 13.9543 30.6825 13.0028 30.6826ZM24.7975 25.877C24.7492 25.9633 24.6786 26.0351 24.5931 26.0848C24.5075 26.1346 24.4102 26.1604 24.3113 26.1597H1.69561C1.59668 26.1604 1.49938 26.1346 1.41386 26.0848C1.32833 26.0351 1.25772 25.9633 1.2094 25.877C1.15978 25.7911 1.13366 25.6936 1.13366 25.5943C1.13366 25.4951 1.15978 25.3976 1.2094 25.3117C2.26097 23.4983 3.39168 19.2793 3.39168 14.2872C3.39168 11.7382 4.40427 9.29357 6.2067 7.49114C8.00913 5.68872 10.4537 4.67612 13.0028 4.67612C15.5518 4.67612 17.9964 5.68872 19.7988 7.49114C21.6012 9.29357 22.6138 11.7382 22.6138 14.2872C22.6138 19.2779 23.7445 23.4983 24.7961 25.3117C24.8459 25.3975 24.8723 25.4949 24.8726 25.5942C24.8728 25.6934 24.8469 25.791 24.7975 25.877Z" fill="#02050B"/>
<ellipse cx="17.1364" cy="4.13636" rx="4.13636" ry="4.13636" fill="#FF4646"/>
</svg>
