<svg width="30" height="30" viewBox="0 0 30 30" fill="none" xmlns="http://www.w3.org/2000/svg">
<path d="M27.1465 22.7988L23.257 4.30662C23.2067 4.06479 23.1091 3.83529 22.9699 3.63129C22.8306 3.4273 22.6524 3.25283 22.4455 3.11791C22.2386 2.98299 22.0071 2.89028 21.7642 2.8451C21.5214 2.79993 21.272 2.80318 21.0305 2.85467L15.5449 4.03357C15.0597 4.13982 14.6361 4.43334 14.3661 4.85031C14.0962 5.26727 14.0018 5.77395 14.1035 6.26014L17.993 24.7523C18.0796 25.1742 18.3089 25.5534 18.6423 25.8262C18.9756 26.0989 19.3927 26.2486 19.8234 26.25C19.9566 26.2498 20.0893 26.2357 20.2195 26.2078L25.7051 25.0289C26.1909 24.9224 26.6149 24.6283 26.8849 24.2106C27.1549 23.7929 27.2489 23.2855 27.1465 22.7988ZM15.9375 5.87693C15.9375 5.8699 15.9375 5.86639 15.9375 5.86639L21.4219 4.69451L21.8121 6.55428L16.3277 7.73435L15.9375 5.87693ZM16.7133 9.56482L22.2 8.38709L22.5914 10.2504L17.1094 11.4293L16.7133 9.56482ZM17.4914 13.2644L22.9781 12.0855L24.5367 19.4965L19.05 20.6754L17.4914 13.2644ZM25.3125 23.1961L19.8281 24.368L19.4379 22.5082L24.9223 21.3281L25.3125 23.1855C25.3125 23.1926 25.3125 23.1961 25.3125 23.1961ZM12.1875 3.74998H6.5625C6.06522 3.74998 5.58831 3.94752 5.23667 4.29915C4.88504 4.65079 4.6875 5.1277 4.6875 5.62498V24.375C4.6875 24.8723 4.88504 25.3492 5.23667 25.7008C5.58831 26.0524 6.06522 26.25 6.5625 26.25H12.1875C12.6848 26.25 13.1617 26.0524 13.5133 25.7008C13.865 25.3492 14.0625 24.8723 14.0625 24.375V5.62498C14.0625 5.1277 13.865 4.65079 13.5133 4.29915C13.1617 3.94752 12.6848 3.74998 12.1875 3.74998ZM6.5625 5.62498H12.1875V7.49998H6.5625V5.62498ZM6.5625 9.37498H12.1875V20.625H6.5625V9.37498ZM12.1875 24.375H6.5625V22.5H12.1875V24.375Z" fill="black"/>
</svg>
