<svg width="30" height="30" viewBox="0 0 30 30" fill="none" xmlns="http://www.w3.org/2000/svg">
<path d="M26.25 23.4375H25.3125V4.6875C25.3125 4.43886 25.2137 4.2004 25.0379 4.02459C24.8621 3.84877 24.6236 3.75 24.375 3.75H17.8125C17.5639 3.75 17.3254 3.84877 17.1496 4.02459C16.9738 4.2004 16.875 4.43886 16.875 4.6875V9.375H11.25C11.0014 9.375 10.7629 9.47377 10.5871 9.64959C10.4113 9.8254 10.3125 10.0639 10.3125 10.3125V15H5.625C5.37636 15 5.1379 15.0988 4.96209 15.2746C4.78627 15.4504 4.6875 15.6889 4.6875 15.9375V23.4375H3.75C3.50136 23.4375 3.2629 23.5363 3.08709 23.7121C2.91127 23.8879 2.8125 24.1264 2.8125 24.375C2.8125 24.6236 2.91127 24.8621 3.08709 25.0379C3.2629 25.2137 3.50136 25.3125 3.75 25.3125H26.25C26.4986 25.3125 26.7371 25.2137 26.9129 25.0379C27.0887 24.8621 27.1875 24.6236 27.1875 24.375C27.1875 24.1264 27.0887 23.8879 26.9129 23.7121C26.7371 23.5363 26.4986 23.4375 26.25 23.4375ZM18.75 5.625H23.4375V23.4375H18.75V5.625ZM12.1875 11.25H16.875V23.4375H12.1875V11.25ZM6.5625 16.875H10.3125V23.4375H6.5625V16.875Z" fill="black"/>
</svg>
