<svg width="24" height="24" viewBox="0 0 24 24" fill="none" xmlns="http://www.w3.org/2000/svg">
<path d="M8.46878 18.9694C8.3991 19.039 8.34383 19.1218 8.30612 19.2128C8.2684 19.3039 8.24899 19.4014 8.24899 19.5C8.24899 19.5985 8.2684 19.6961 8.30612 19.7872C8.34383 19.8782 8.3991 19.9609 8.46878 20.0306C8.53847 20.1003 8.62119 20.1556 8.71224 20.1933C8.80328 20.231 8.90086 20.2504 8.99941 20.2504C9.09796 20.2504 9.19554 20.231 9.28658 20.1933C9.37763 20.1556 9.46035 20.1003 9.53004 20.0306L17.03 12.5306C17.0998 12.461 17.1551 12.3782 17.1928 12.2872C17.2306 12.1961 17.25 12.0986 17.25 12C17.25 11.9014 17.2306 11.8038 17.1928 11.7128C17.1551 11.6217 17.0998 11.539 17.03 11.4694L9.53004 3.96936C9.3893 3.82863 9.19843 3.74957 8.99941 3.74957C8.80039 3.74957 8.60952 3.82863 8.46878 3.96936C8.32805 4.1101 8.24899 4.30097 8.24899 4.49999C8.24899 4.69901 8.32805 4.88988 8.46878 5.03061L15.4391 12L8.46878 18.9694Z" fill="black"/>
</svg>
