<svg width="182" height="181" viewBox="0 0 182 181" fill="none" xmlns="http://www.w3.org/2000/svg">
<path d="M31.832 24.5447L34.2185 23.3594C33.4016 23.6957 32.6009 24.0962 31.832 24.5447ZM114.243 173.959C115.38 173.51 116.47 172.98 117.527 172.371L118.007 172.084L114.243 173.959Z" stroke="#EB6C11" stroke-width="0.424779" stroke-linecap="round" stroke-linejoin="round"/>
<path d="M131.667 107.725C131.299 106.347 130.899 104.97 130.466 103.576C129.281 99.7478 127.951 95.9836 126.446 92.2675C123.931 86.0206 120.952 79.9339 117.524 74.0234C112.078 64.621 105.671 55.9714 98.3025 48.0747C95.6756 45.2556 92.9844 42.6287 90.2294 40.21C85.2639 35.8211 80.0743 32.073 74.6764 28.9656C66.6835 24.3525 59.1389 21.6615 52.0591 20.8926C51.7227 20.8606 51.3866 20.8286 51.0503 20.7965C44.7393 20.268 39.1169 21.1169 34.2155 23.3594L31.829 24.5447C26.3669 27.6521 22.058 32.5215 18.8705 39.1368C15.699 45.7521 14.1133 53.8731 14.1133 63.4837C14.1133 73.0943 15.699 83.0574 18.8705 93.3567C22.058 103.64 26.3669 113.491 31.829 122.893C37.275 132.296 43.6821 140.945 51.0503 148.842C58.4184 156.755 66.2991 163.114 74.6764 167.952C83.0536 172.789 90.9343 175.512 98.3025 176.121C104.245 176.617 109.547 175.897 114.24 173.958L118.004 172.084C122.601 169.345 126.381 165.309 129.312 159.99C129.729 159.27 130.098 158.533 130.466 157.78C132.372 153.824 133.702 149.339 134.454 144.325C134.983 140.945 135.239 137.309 135.239 133.433C135.239 125.104 134.054 116.534 131.667 107.725ZM120.439 143.893C118.709 148.538 116.162 152.286 112.782 155.121C111.629 156.114 110.396 156.979 109.05 157.748C99.6638 163.098 88.1953 161.865 74.6764 154.064C61.1414 146.247 49.6888 134.25 40.3024 118.056C30.916 101.862 26.2228 86.0046 26.2228 70.4835V69.4423C34.1996 70.6917 41.183 69.7146 47.1897 66.5271C47.478 66.3669 47.7663 66.2228 48.0386 66.0466C52.1391 63.692 55.5512 60.3603 58.2903 56.0835C58.8028 55.2987 59.2832 54.4658 59.7317 53.6168C60.1962 52.7679 60.6287 51.8869 61.0451 50.9739C61.5417 51.951 62.0382 52.9281 62.5668 53.8891C63.2396 55.2026 63.9605 56.5 64.6973 57.7654C67.8368 63.3396 71.3287 68.6254 75.1409 73.6389C77.2873 76.5061 79.5618 79.2932 81.9484 81.9842C84.5433 84.9154 87.186 87.6544 89.877 90.1852C93.6412 93.7252 97.5175 96.8646 101.474 99.6357C103.62 101.141 105.799 102.519 107.993 103.784C110.316 105.13 112.526 106.267 114.64 107.196C116.771 108.141 118.885 108.926 121.015 109.567C121.368 110.832 121.672 112.081 121.912 113.315C122.249 114.933 122.505 116.518 122.681 118.088C122.97 120.875 123.13 123.646 123.13 126.433C123.13 133.225 122.233 139.039 120.439 143.893Z" stroke="#EB6C11" stroke-width="4" stroke-linecap="round" stroke-linejoin="round"/>
<path d="M89.8797 90.1854L70.9949 99.6359L62.2492 104.009C62.2492 104.009 62.2332 103.977 62.2172 103.961C63.4505 103.08 64.0751 101.526 64.0751 99.2835C64.0751 96.8648 63.3386 94.3821 61.881 91.8513C60.4233 89.3365 58.6292 87.4624 56.5149 86.2291C55.4577 85.6204 54.4808 85.268 53.5838 85.1719C53.5037 84.9637 53.4234 84.7554 53.3594 84.5472L62.4092 80.0142L75.1436 73.6392C77.29 76.5063 79.5645 79.2934 81.9511 81.9844C84.546 84.9156 87.1888 87.6546 89.8797 90.1854Z" stroke="#EB6C11" stroke-width="4" stroke-linecap="round" stroke-linejoin="round"/>
<path d="M100.42 120.267C100.42 117.832 99.6826 115.365 98.225 112.834C96.7514 110.304 94.9732 108.429 92.8429 107.212C90.9368 106.123 89.3033 105.835 87.9258 106.411L101.477 99.6357C103.623 101.141 105.802 102.519 107.996 103.784C110.319 105.13 112.529 106.267 114.643 107.196C116.773 108.141 118.888 108.926 121.018 109.567C121.371 110.832 121.675 112.081 121.915 113.315L98.225 125.168C99.6826 124.335 100.42 122.701 100.42 120.267Z" stroke="#EB6C11" stroke-width="4" stroke-linecap="round" stroke-linejoin="round"/>
<path d="M100.418 120.267C100.418 122.701 99.6813 124.335 98.2237 125.168C96.7501 126.001 94.972 125.809 92.8416 124.591C90.7273 123.358 88.9334 121.484 87.4758 118.969C86.0022 116.438 85.2812 113.956 85.2812 111.521C85.2812 109.086 86.0022 107.469 87.4758 106.636L87.9245 106.411C89.302 105.835 90.9355 106.123 92.8416 107.212C94.972 108.43 96.7501 110.304 98.2237 112.834C99.6813 115.365 100.418 117.832 100.418 120.267Z" stroke="#EB6C11" stroke-width="4" stroke-linecap="round" stroke-linejoin="round"/>
<path d="M147.109 157.572C147.942 157.22 148.759 156.803 149.56 156.355L147.109 157.572Z" stroke="#EB6C11" stroke-width="4" stroke-linecap="round" stroke-linejoin="round"/>
<path d="M64.0741 99.284C64.0741 101.526 63.4495 103.08 62.2162 103.961C62.1201 104.041 61.9921 104.121 61.88 104.185C60.4224 105.018 58.6282 104.826 56.5139 103.609C54.3835 102.375 52.5897 100.501 51.1321 97.9865C49.6745 95.4557 48.9375 92.973 48.9375 90.5543C48.9375 88.1356 49.6745 86.4858 51.1321 85.6529L51.5806 85.4286C52.2053 85.1724 52.862 85.0923 53.5828 85.1724C54.4798 85.2685 55.4567 85.6209 56.5139 86.2295C58.6282 87.4629 60.4224 89.337 61.88 91.8517C63.3376 94.3825 64.0741 96.8653 64.0741 99.284Z" stroke="#EB6C11" stroke-width="4" stroke-linecap="round" stroke-linejoin="round"/>
<path d="M120.439 143.893C118.709 148.538 116.162 152.286 112.782 155.121C111.629 156.114 110.396 156.979 109.05 157.748C99.6637 163.098 88.1952 161.865 74.6762 154.064C61.1413 146.247 49.6886 134.25 40.3023 118.056C30.9159 101.862 26.2227 86.0047 26.2227 70.4836V69.4424C34.1995 70.6918 41.1829 69.7146 47.1896 66.527L48.0545 66.0947L58.5303 60.8569C59.0428 67.1839 60.3401 73.575 62.4064 80.0141L53.3565 84.5471L51.5787 85.4279L51.1302 85.6522C49.6726 86.4851 48.9357 88.1191 48.9357 90.5537C48.9357 92.9884 49.6726 95.4552 51.1302 97.986C52.5878 100.501 54.3817 102.375 56.512 103.608C58.6264 104.826 60.4205 105.018 61.8781 104.185L62.2464 104.009L70.992 99.6358C71.4245 100.437 71.8732 101.238 72.3377 102.038C81.724 118.232 93.1767 130.23 106.712 138.046C111.549 140.833 116.13 142.787 120.439 143.893Z" stroke="#EB6C11" stroke-width="4" stroke-linecap="round" stroke-linejoin="round"/>
<path d="M64.6978 57.7656L58.5308 60.857L48.0551 66.0948C48.0551 66.0948 48.0391 66.0628 48.0391 66.0468C52.1396 63.6922 55.5517 60.3605 58.2907 56.0838C58.8033 55.2989 59.2836 54.466 59.7321 53.617C60.1967 52.7681 60.6291 51.8871 61.0456 50.9741C61.5421 51.9512 62.0387 52.9283 62.5673 53.8893C63.24 55.2028 63.961 56.5002 64.6978 57.7656Z" stroke="#EB6C11" stroke-width="4" stroke-linecap="round" stroke-linejoin="round"/>
<path d="M167.278 117.415C167.278 127.026 165.692 135.147 162.505 141.762C159.333 148.378 155.008 153.247 149.562 156.354L147.111 157.572L118.007 172.085C122.605 169.346 126.384 165.307 129.316 159.99C129.732 159.27 130.101 158.533 130.469 157.78C132.375 153.824 133.705 149.339 134.458 144.325C134.986 140.945 135.243 137.309 135.243 133.433C135.243 125.104 134.057 116.534 131.671 107.725C131.302 106.347 130.902 104.97 130.469 103.576C129.284 99.7478 127.954 95.9837 126.449 92.2676C123.934 86.0207 120.955 79.934 117.527 74.0234C112.081 64.621 105.674 55.9715 98.3057 48.0748C95.6788 45.2556 92.9877 42.6287 90.2326 40.2101C85.2671 35.8212 80.0776 32.0731 74.6796 28.9657C66.6868 24.3526 59.1421 21.6616 52.0623 20.8927C51.7259 20.8607 51.3899 20.8287 51.0535 20.7966C44.7425 20.268 39.1202 21.117 34.2188 23.3595L63.8677 8.52708C69.3137 5.41965 75.7208 4.17027 83.0889 4.77894C90.457 5.38761 98.3377 8.11062 106.715 12.948C115.092 17.7853 122.973 24.1443 130.341 32.0571C137.709 39.9538 144.116 48.6034 149.562 58.0057C155.008 67.4081 159.333 77.259 162.505 87.5584C165.692 97.8417 167.278 107.789 167.278 117.415Z" stroke="#EB6C11" stroke-width="4" stroke-linecap="round" stroke-linejoin="round"/>
</svg>
