<svg width="182" height="181" viewBox="0 0 182 181" fill="none" xmlns="http://www.w3.org/2000/svg">
<path d="M109.526 114.425L98.2396 117.178L112.218 177.699L75.0899 123.825L37.9469 134.822L51.9401 90.4542L14.9492 38.7399L60.6555 65.1142L65.0056 50.9841L69.2188 37.295L75.0899 18.252L80.961 44.0635L89.5243 81.7845L129.299 104.767L135.215 108.174L130.363 109.36L109.526 114.425Z" stroke="#EB6C11" stroke-width="5" stroke-linecap="round" stroke-linejoin="round"/>
<path d="M165.634 92.9642L135.215 108.174L129.298 104.767L89.5234 81.7848L119.944 66.5747L165.634 92.9642Z" stroke="#EB6C11" stroke-width="5" stroke-linecap="round" stroke-linejoin="round"/>
<path d="M69.2188 37.2949L65.0056 50.984L60.6555 65.1142L14.9492 38.7399L45.3694 23.5298L69.2188 37.2949Z" stroke="#EB6C11" stroke-width="5" stroke-linecap="round" stroke-linejoin="round"/>
<path d="M142.637 162.489L112.216 177.699L98.2383 117.178L109.524 114.425L130.362 109.36L142.637 162.489Z" stroke="#EB6C11" stroke-width="5" stroke-linecap="round" stroke-linejoin="round"/>
<path d="M119.948 66.5745L89.5281 81.7846L80.9648 44.0636L75.0938 18.2521L105.514 3.04199L119.948 66.5745Z" stroke="#EB6C11" stroke-width="5" stroke-linecap="round" stroke-linejoin="round"/>
</svg>
