<svg width="30" height="30" viewBox="0 0 30 30" fill="none" xmlns="http://www.w3.org/2000/svg">
<path d="M25.3126 3.75H17.8126C17.669 3.74999 17.5274 3.78295 17.3986 3.84634C17.2698 3.90973 17.1572 4.00186 17.0696 4.11562L9.56964 13.8668L8.43761 12.7371C8.26347 12.5628 8.05668 12.4245 7.82906 12.3301C7.60144 12.2358 7.35745 12.1872 7.11105 12.1872C6.86464 12.1872 6.62065 12.2358 6.39303 12.3301C6.16541 12.4245 5.95862 12.5628 5.78448 12.7371L4.29737 14.2254C4.12322 14.3995 3.98507 14.6062 3.89081 14.8337C3.79656 15.0613 3.74805 15.3051 3.74805 15.5514C3.74805 15.7976 3.79656 16.0415 3.89081 16.269C3.98507 16.4965 4.12322 16.7032 4.29737 16.8773L6.64112 19.2211L3.35987 22.5023C3.18572 22.6765 3.04757 22.8832 2.95331 23.1107C2.85906 23.3382 2.81055 23.5821 2.81055 23.8283C2.81055 24.0746 2.85906 24.3184 2.95331 24.546C3.04757 24.7735 3.18572 24.9802 3.35987 25.1543L4.84698 26.6402C5.19858 26.9916 5.6753 27.189 6.17237 27.189C6.66944 27.189 7.14617 26.9916 7.49776 26.6402L10.779 23.359L13.1228 25.7027C13.2969 25.8771 13.5037 26.0154 13.7313 26.1097C13.9589 26.2041 14.2029 26.2526 14.4493 26.2526C14.6957 26.2526 14.9397 26.2041 15.1673 26.1097C15.395 26.0154 15.6018 25.8771 15.7759 25.7027L17.263 24.2145C17.4372 24.0403 17.5753 23.8336 17.6696 23.6061C17.7638 23.3786 17.8123 23.1347 17.8123 22.8885C17.8123 22.6422 17.7638 22.3984 17.6696 22.1708C17.5753 21.9433 17.4372 21.7366 17.263 21.5625L16.1333 20.4328L25.8845 12.9328C25.9986 12.845 26.0909 12.7321 26.1543 12.6028C26.2177 12.4736 26.2505 12.3315 26.2501 12.1875V4.6875C26.2501 4.43886 26.1513 4.2004 25.9755 4.02459C25.7997 3.84877 25.5612 3.75 25.3126 3.75ZM6.17472 25.3125L4.68761 23.8266L7.96886 20.5453L9.4548 22.0313L6.17472 25.3125ZM14.4493 24.375L5.62511 15.552L7.11339 14.0625L15.9376 22.8879L14.4493 24.375ZM24.3751 11.7258L14.7962 19.0945L13.5142 17.8125L19.4134 11.9133C19.5891 11.7374 19.6878 11.4988 19.6877 11.2502C19.6876 11.0015 19.5887 10.7631 19.4128 10.5873C19.2369 10.4115 18.9984 10.3129 18.7497 10.313C18.501 10.3131 18.2626 10.412 18.0868 10.5879L12.1876 16.4859L10.9067 15.2039L18.2743 5.625H24.3751V11.7258Z" fill="black"/>
</svg>
