<svg width="30" height="30" viewBox="0 0 30 30" fill="none" xmlns="http://www.w3.org/2000/svg">
<path d="M25.3125 4.6875H4.6875C4.19022 4.6875 3.71331 4.88504 3.36167 5.23667C3.01004 5.58831 2.8125 6.06522 2.8125 6.5625V25.3125C2.81239 25.4724 2.85316 25.6296 2.93096 25.7693C3.00875 25.909 3.12098 26.0265 3.25697 26.1106C3.39296 26.1946 3.54819 26.2425 3.70792 26.2497C3.86764 26.2569 4.02655 26.2231 4.16953 26.1516L7.5 24.4852L10.8305 26.1516C10.9607 26.2167 11.1044 26.2507 11.25 26.2507C11.3956 26.2507 11.5393 26.2167 11.6695 26.1516L15 24.4852L18.3305 26.1516C18.4607 26.2167 18.6044 26.2507 18.75 26.2507C18.8956 26.2507 19.0393 26.2167 19.1695 26.1516L22.5 24.4852L25.8305 26.1516C25.9735 26.2231 26.1324 26.2569 26.2921 26.2497C26.4518 26.2425 26.607 26.1946 26.743 26.1106C26.879 26.0265 26.9912 25.909 27.069 25.7693C27.1468 25.6296 27.1876 25.4724 27.1875 25.3125V6.5625C27.1875 6.06522 26.99 5.58831 26.6383 5.23667C26.2867 4.88504 25.8098 4.6875 25.3125 4.6875ZM25.3125 23.7961L22.9195 22.5984C22.7893 22.5333 22.6456 22.4993 22.5 22.4993C22.3544 22.4993 22.2107 22.5333 22.0805 22.5984L18.75 24.2648L15.4195 22.5984C15.2893 22.5333 15.1456 22.4993 15 22.4993C14.8544 22.4993 14.7107 22.5333 14.5805 22.5984L11.25 24.2648L7.91953 22.5984C7.78929 22.5333 7.64564 22.4993 7.5 22.4993C7.35436 22.4993 7.21072 22.5333 7.08047 22.5984L4.6875 23.7961V6.5625H25.3125V23.7961ZM7.08047 19.5891C7.19064 19.6442 7.31061 19.6772 7.43351 19.6859C7.55641 19.6947 7.67984 19.6792 7.79673 19.6402C7.91362 19.6012 8.02169 19.5396 8.11475 19.4588C8.20781 19.3781 8.28403 19.2798 8.33906 19.1695L9.01641 17.8125H13.4836L14.1609 19.1695C14.216 19.2797 14.2923 19.378 14.3854 19.4587C14.4784 19.5394 14.5865 19.601 14.7033 19.64C14.8202 19.6789 14.9436 19.6945 15.0665 19.6857C15.1894 19.677 15.3093 19.6442 15.4195 19.5891C15.5297 19.534 15.628 19.4577 15.7087 19.3646C15.7894 19.2716 15.851 19.1635 15.89 19.0467C15.9289 18.9298 15.9445 18.8064 15.9357 18.6835C15.927 18.5606 15.8942 18.4407 15.8391 18.3305L12.0891 10.8305C12.0113 10.6745 11.8916 10.5432 11.7434 10.4515C11.5952 10.3598 11.4243 10.3112 11.25 10.3112C11.0757 10.3112 10.9048 10.3598 10.7566 10.4515C10.6084 10.5432 10.4887 10.6745 10.4109 10.8305L6.66094 18.3305C6.60576 18.4406 6.57285 18.5606 6.56407 18.6835C6.5553 18.8064 6.57084 18.9298 6.6098 19.0467C6.64877 19.1636 6.71039 19.2717 6.79115 19.3647C6.87191 19.4578 6.97023 19.534 7.08047 19.5891ZM11.25 13.3465L12.5461 15.9375H9.95391L11.25 13.3465ZM15.9375 15C15.9375 14.7514 16.0363 14.5129 16.2121 14.3371C16.3879 14.1613 16.6264 14.0625 16.875 14.0625H18.75V12.1875C18.75 11.9389 18.8488 11.7004 19.0246 11.5246C19.2004 11.3488 19.4389 11.25 19.6875 11.25C19.9361 11.25 20.1746 11.3488 20.3504 11.5246C20.5262 11.7004 20.625 11.9389 20.625 12.1875V14.0625H22.5C22.7486 14.0625 22.9871 14.1613 23.1629 14.3371C23.3387 14.5129 23.4375 14.7514 23.4375 15C23.4375 15.2486 23.3387 15.4871 23.1629 15.6629C22.9871 15.8387 22.7486 15.9375 22.5 15.9375H20.625V17.8125C20.625 18.0611 20.5262 18.2996 20.3504 18.4754C20.1746 18.6512 19.9361 18.75 19.6875 18.75C19.4389 18.75 19.2004 18.6512 19.0246 18.4754C18.8488 18.2996 18.75 18.0611 18.75 17.8125V15.9375H16.875C16.6264 15.9375 16.3879 15.8387 16.2121 15.6629C16.0363 15.4871 15.9375 15.2486 15.9375 15Z" fill="#302D2D"/>
</svg>
