<svg width="13" height="13" viewBox="0 0 13 13" fill="none" xmlns="http://www.w3.org/2000/svg">
<path d="M10.9688 2.4375H2.03125C1.92351 2.4375 1.82017 2.4803 1.74399 2.55649C1.6678 2.63267 1.625 2.73601 1.625 2.84375C1.625 2.95149 1.6678 3.05483 1.74399 3.13101C1.82017 3.2072 1.92351 3.25 2.03125 3.25H2.4375V10.5625C2.4375 10.778 2.5231 10.9847 2.67548 11.137C2.82785 11.2894 3.03451 11.375 3.25 11.375H9.75C9.96549 11.375 10.1722 11.2894 10.3245 11.137C10.4769 10.9847 10.5625 10.778 10.5625 10.5625V3.25H10.9688C11.0765 3.25 11.1798 3.2072 11.256 3.13101C11.3322 3.05483 11.375 2.95149 11.375 2.84375C11.375 2.73601 11.3322 2.63267 11.256 2.55649C11.1798 2.4803 11.0765 2.4375 10.9688 2.4375ZM9.75 10.5625H3.25V3.25H9.75V10.5625ZM4.0625 1.21875C4.0625 1.11101 4.1053 1.00767 4.18149 0.931488C4.25767 0.855301 4.36101 0.8125 4.46875 0.8125H8.53125C8.63899 0.8125 8.74233 0.855301 8.81851 0.931488C8.8947 1.00767 8.9375 1.11101 8.9375 1.21875C8.9375 1.32649 8.8947 1.42983 8.81851 1.50601C8.74233 1.5822 8.63899 1.625 8.53125 1.625H4.46875C4.36101 1.625 4.25767 1.5822 4.18149 1.50601C4.1053 1.42983 4.0625 1.32649 4.0625 1.21875Z" fill="#EA4335"/>
</svg>
